<svg xmlns="http://www.w3.org/2000/svg" xmlns:xlink="http://www.w3.org/1999/xlink" xmlns:serif="http://www.serif.com/" viewBox="0 0 512 640" version="1.1" xml:space="preserve" style="" x="0px" y="0px" fill-rule="evenodd" clip-rule="evenodd" stroke-linejoin="round" stroke-miterlimit="2"><g transform="matrix(1,0,0,1,-1686,-1124)"><g><path d="M1903.64,1578.74C1904.43,1579.58 1905.22,1580.4 1906.02,1581.19C1917.39,1592.5 1929.56,1598.83 1942,1598.83C1954.44,1598.83 1966.61,1592.5 1977.98,1581.19C1978.78,1580.4 1979.57,1579.58 1980.36,1578.74C2014.72,1582.04 2038.79,1589.65 2038.79,1598.49C2038.79,1610.36 1995.42,1620 1942,1620C1888.58,1620 1845.21,1610.36 1845.21,1598.49C1845.21,1589.65 1869.28,1582.04 1903.64,1578.74ZM1830.7,1367.24C1829.45,1357.34 1828.79,1348.61 1828.79,1341.51C1904.26,1415.29 1979.74,1411.91 2055.21,1341.51C2055.21,1348.61 2054.55,1357.34 2053.3,1367.24C2048.63,1367.01 2043.84,1367.93 2039.35,1370.13C2025.15,1377.08 2019.27,1394.25 2026.22,1408.45C2031.38,1418.97 2034.41,1428.54 2035.39,1436.98C2035.57,1438.47 2035.7,1439.91 2035.78,1441.3C2034.56,1445.62 2033.33,1449.91 2032.11,1454.12C2030.31,1454.83 2028.25,1454.48 2026,1453.71C2022.2,1452.41 2018.07,1449.82 2013.64,1446.51C2000.99,1437.03 1983.02,1439.61 1973.55,1452.27C1964.07,1464.92 1966.65,1482.88 1979.3,1492.36L1979.3,1492.36C1991.37,1501.4 2003.23,1506.97 2014.46,1509.69C1994.82,1556.11 1969.55,1592.83 1942,1592.83C1914.45,1592.83 1889.18,1556.11 1869.54,1509.69C1880.77,1506.97 1892.63,1501.4 1904.7,1492.36L1904.7,1492.36C1917.35,1482.88 1919.93,1464.92 1910.45,1452.27C1900.98,1439.61 1883.01,1437.03 1870.36,1446.51C1865.93,1449.82 1861.8,1452.41 1858,1453.71C1855.75,1454.48 1853.7,1454.83 1851.89,1454.12C1850.67,1449.92 1849.44,1445.62 1848.22,1441.3C1848.3,1439.91 1848.43,1438.47 1848.61,1436.98C1849.59,1428.54 1852.62,1418.97 1857.78,1408.45C1864.73,1394.25 1858.85,1377.08 1844.65,1370.13C1840.16,1367.93 1835.37,1367.01 1830.7,1367.24ZM1901.1,1487.56C1864.77,1514.76 1830.54,1508.48 1811.97,1486.89C1795.86,1468.16 1789.16,1431.95 1811.72,1385.89C1817.22,1374.67 1830.79,1370.02 1842.02,1375.52C1853.24,1381.01 1857.89,1394.59 1852.39,1405.81C1846.88,1417.05 1843.69,1427.27 1842.64,1436.28C1841.38,1447.1 1842.25,1455.75 1848.42,1459.11C1855.11,1462.75 1863.95,1458.81 1873.96,1451.31C1883.96,1443.82 1898.16,1445.86 1905.65,1455.86C1913.14,1465.87 1911.1,1480.07 1901.1,1487.56ZM1982.9,1487.56C2019.23,1514.76 2053.46,1508.48 2072.03,1486.89C2088.14,1468.16 2094.84,1431.95 2072.28,1385.89C2066.78,1374.67 2053.21,1370.02 2041.98,1375.52C2030.76,1381.01 2026.11,1394.59 2031.61,1405.81C2037.12,1417.05 2040.31,1427.27 2041.36,1436.28C2042.62,1447.1 2041.75,1455.75 2035.58,1459.11C2028.89,1462.75 2020.05,1458.81 2010.04,1451.31C2000.04,1443.82 1985.84,1445.86 1978.35,1455.86C1970.86,1465.87 1972.9,1480.07 1982.9,1487.56ZM2004.26,1397.07C1994.94,1397.07 1987.37,1404.64 1987.37,1413.96C1987.37,1423.29 1994.94,1430.86 2004.26,1430.86C2013.59,1430.86 2021.16,1423.29 2021.16,1413.96C2021.16,1404.64 2013.59,1397.07 2004.26,1397.07ZM2004.26,1407.07C2008.07,1407.07 2011.16,1410.15 2011.16,1413.96C2011.16,1417.77 2008.07,1420.86 2004.26,1420.86C2000.46,1420.86 1997.37,1417.77 1997.37,1413.96C1997.37,1410.15 2000.46,1407.07 2004.26,1407.07ZM1942,1140C2004.48,1140 2055.21,1190.73 2055.21,1253.21C2055.21,1315.69 2004.48,1366.41 1942,1366.41C1879.52,1366.41 1828.79,1315.69 1828.79,1253.21C1828.79,1190.73 1879.52,1140 1942,1140ZM1973.54,1298.33C1973.54,1297.17 1973.14,1296.01 1972.33,1295.07C1970.53,1292.97 1967.37,1292.74 1965.28,1294.53C1957.5,1301.22 1949.79,1304.7 1942.01,1304.69C1934.22,1304.67 1926.5,1301.16 1918.71,1294.52C1916.61,1292.73 1913.45,1292.98 1911.66,1295.08C1911.01,1295.84 1910.63,1296.75 1910.51,1297.67C1910.49,1297.8 1910.48,1297.93 1910.47,1298.07L1910.47,1298.11C1910.47,1298.17 1910.47,1298.22 1910.47,1298.28L1910.46,1298.33C1910.46,1315.67 1924.65,1331 1942,1331C1959.35,1331 1973.54,1315.67 1973.54,1298.33L1973.54,1298.33ZM1923.64,1309.94C1927.42,1316.43 1934.21,1321 1942,1321C1949.77,1321 1956.55,1316.46 1960.33,1309.99C1954.22,1313.16 1948.09,1314.7 1941.99,1314.69C1935.89,1314.67 1929.76,1313.12 1923.64,1309.94ZM1832.67,1205.66L1819.89,1205.66C1813.48,1205.66 1808.28,1210.86 1808.28,1217.26L1808.28,1271.04C1808.28,1277.44 1813.48,1282.64 1819.89,1282.64L1826.46,1282.64C1824.07,1273.23 1822.79,1263.37 1822.79,1253.21C1822.79,1236.31 1826.32,1220.23 1832.67,1205.66ZM2051.33,1205.66L2064.11,1205.66C2070.52,1205.66 2075.72,1210.86 2075.72,1217.26L2075.72,1271.04C2075.72,1277.44 2070.52,1282.64 2064.11,1282.64L2057.54,1282.64C2059.93,1273.23 2061.21,1263.37 2061.21,1253.21C2061.21,1236.31 2057.68,1220.23 2051.33,1205.66ZM1920.07,1272.49C1921,1271.58 1921.58,1270.32 1921.58,1268.91C1921.58,1253.98 1909.35,1240.8 1894.42,1240.8C1879.49,1240.8 1867.26,1253.98 1867.26,1268.91C1867.26,1269.5 1867.36,1270.06 1867.55,1270.59L1867.56,1270.63L1867.57,1270.65L1867.59,1270.69C1867.79,1271.21 1868.07,1271.71 1868.46,1272.15C1868.94,1272.72 1869.51,1273.15 1870.14,1273.44L1870.18,1273.46L1870.19,1273.46C1870.82,1273.75 1871.52,1273.91 1872.26,1273.91C1873.5,1273.91 1874.63,1273.46 1875.51,1272.71C1881.84,1267.31 1888.1,1264.43 1894.43,1264.42C1900.75,1264.41 1907,1267.27 1913.32,1272.7C1913.81,1273.12 1914.35,1273.42 1914.91,1273.63L1914.94,1273.63L1914.96,1273.64L1914.98,1273.65L1915,1273.65C1915.5,1273.82 1916.03,1273.91 1916.58,1273.91C1917.51,1273.91 1918.38,1273.66 1919.13,1273.21L1919.17,1273.18C1919.48,1273 1919.76,1272.78 1920.03,1272.53L1920.07,1272.5L1920.07,1272.49ZM2016.74,1268.91L2016.74,1268.91C2016.74,1253.98 2004.51,1240.8 1989.58,1240.8C1974.88,1240.8 1962.8,1253.57 1962.43,1268.21L1962.42,1268.91C1962.42,1269.5 1962.52,1270.06 1962.71,1270.59L1962.72,1270.63L1962.73,1270.65L1962.75,1270.69C1962.94,1271.21 1963.23,1271.71 1963.62,1272.15C1964.1,1272.72 1964.67,1273.15 1965.3,1273.44L1965.34,1273.46L1965.35,1273.46C1965.98,1273.75 1966.68,1273.91 1967.42,1273.91L1967.42,1273.91C1968.57,1273.91 1969.72,1273.52 1970.66,1272.71C1977,1267.32 1983.26,1264.43 1989.59,1264.42C1995.91,1264.41 2002.16,1267.27 2008.48,1272.7C2008.98,1273.13 2009.53,1273.44 2010.12,1273.64L2010.15,1273.65L2010.18,1273.66L2010.22,1273.67C2010.62,1273.8 2011.04,1273.88 2011.48,1273.9L2011.52,1273.9C2011.58,1273.91 2011.64,1273.91 2011.7,1273.91L2011.74,1273.91L2011.74,1273.91C2013.15,1273.91 2014.54,1273.32 2015.53,1272.17C2016.34,1271.23 2016.74,1270.07 2016.74,1268.91ZM1802.28,1221.14L1802.28,1267.16C1792.06,1264.5 1784.51,1255.2 1784.51,1244.15C1784.51,1233.1 1792.06,1223.8 1802.28,1221.14ZM2081.72,1221.14L2081.72,1267.16C2091.94,1264.5 2099.49,1255.2 2099.49,1244.15C2099.49,1233.1 2091.94,1223.8 2081.72,1221.14ZM1881.5,1257.16C1885.81,1255.33 1890.12,1254.43 1894.41,1254.42C1898.7,1254.42 1903,1255.3 1907.31,1257.12C1904.17,1253.31 1899.57,1250.8 1894.42,1250.8C1889.25,1250.8 1884.64,1253.33 1881.5,1257.16ZM1976.66,1257.16C1980.97,1255.33 1985.28,1254.43 1989.57,1254.42C1993.86,1254.42 1998.16,1255.3 2002.46,1257.12C1999.33,1253.31 1994.73,1250.8 1989.58,1250.8C1984.41,1250.8 1979.8,1253.33 1976.66,1257.16ZM1902.45,1215.83C1886.79,1214.92 1869.52,1224.73 1860.69,1237.56C1859.13,1239.83 1859.7,1242.94 1861.98,1244.51C1864.25,1246.07 1867.36,1245.5 1868.93,1243.23C1875.92,1233.07 1889.48,1225.1 1901.87,1225.82C1904.63,1225.98 1906.99,1223.87 1907.15,1221.11C1907.31,1218.36 1905.21,1215.99 1902.45,1215.83ZM1982.13,1225.82C1994.52,1225.1 2008.08,1233.07 2015.07,1243.23C2016.64,1245.5 2019.75,1246.07 2022.02,1244.51C2024.3,1242.94 2024.87,1239.83 2023.31,1237.56C2014.48,1224.73 1997.21,1214.92 1981.55,1215.83C1978.79,1215.99 1976.69,1218.36 1976.85,1221.11C1977.01,1223.87 1979.37,1225.98 1982.13,1225.82Z"/></g></g><text x="0" y="527" fill="#000000" font-size="5px" font-weight="bold" font-family="'Helvetica Neue', Helvetica, Arial-Unicode, Arial, Sans-serif">Created by Anditii Creative</text><text x="0" y="532" fill="#000000" font-size="5px" font-weight="bold" font-family="'Helvetica Neue', Helvetica, Arial-Unicode, Arial, Sans-serif">from the Noun Project</text></svg>