<svg xmlns="http://www.w3.org/2000/svg" xmlns:xlink="http://www.w3.org/1999/xlink" xmlns:serif="http://www.serif.com/" viewBox="0 0 512 640" version="1.1" xml:space="preserve" style="" x="0px" y="0px" fill-rule="evenodd" clip-rule="evenodd" stroke-linejoin="round" stroke-miterlimit="2"><g transform="matrix(1,0,0,1,-562,-1686)"><g><path d="M779.64,2140.74C780.429,2141.58 781.221,2142.4 782.016,2143.19C793.388,2154.5 805.561,2160.83 818,2160.83C830.439,2160.83 842.612,2154.5 853.984,2143.19C854.779,2142.4 855.571,2141.58 856.36,2140.74C890.721,2144.04 914.792,2151.65 914.792,2160.49C914.792,2172.36 871.421,2182 818,2182C764.579,2182 721.208,2172.36 721.208,2160.49C721.208,2151.65 745.279,2144.04 779.64,2140.74ZM706.7,1929.24C705.447,1919.34 704.792,1910.61 704.792,1903.51C780.264,1977.29 855.736,1973.91 931.208,1903.51C931.208,1910.61 930.553,1919.34 929.3,1929.24C924.629,1929.01 919.838,1929.93 915.345,1932.13C901.149,1939.08 895.269,1956.25 902.223,1970.45C907.379,1980.97 910.412,1990.54 911.395,1998.98C911.569,2000.47 911.704,2001.91 911.783,2003.3C910.561,2007.62 909.331,2011.91 908.113,2016.12C906.305,2016.83 904.248,2016.48 901.997,2015.71C898.197,2014.41 894.065,2011.82 889.641,2008.51C876.987,1999.03 859.022,2001.61 849.547,2014.27C840.071,2026.92 842.651,2044.88 855.304,2054.36L855.304,2054.36C867.374,2063.4 879.231,2068.97 890.46,2071.69C870.821,2118.11 845.553,2154.83 818,2154.83C790.447,2154.83 765.179,2118.11 745.54,2071.69C756.769,2068.97 768.626,2063.4 780.696,2054.36L780.696,2054.36C793.349,2044.88 795.929,2026.92 786.453,2014.27C776.978,2001.61 759.013,1999.03 746.359,2008.51C741.935,2011.82 737.803,2014.41 734.003,2015.71C731.752,2016.48 729.696,2016.83 727.888,2016.12C726.671,2011.92 725.44,2007.62 724.217,2003.3C724.296,2001.91 724.431,2000.47 724.605,1998.98C725.588,1990.54 728.621,1980.97 733.777,1970.45C740.731,1956.25 734.851,1939.08 720.655,1932.13C716.162,1929.93 711.371,1929.01 706.7,1929.24ZM777.099,2049.56C740.774,2076.76 706.536,2070.47 687.971,2048.89C671.862,2030.16 665.161,1993.95 687.723,1947.89C693.22,1936.67 706.794,1932.02 718.016,1937.52C729.238,1943.01 733.886,1956.59 728.389,1967.81C722.884,1979.05 719.695,1989.27 718.645,1998.28C717.384,2009.1 718.252,2017.75 724.423,2021.11C731.108,2024.75 739.948,2020.81 749.956,2013.31C759.958,2005.82 774.16,2007.86 781.651,2017.86C789.141,2027.87 787.102,2042.07 777.099,2049.56ZM858.901,2049.56C895.226,2076.76 929.464,2070.47 948.029,2048.89C964.138,2030.16 970.839,1993.95 948.277,1947.89C942.78,1936.67 929.206,1932.02 917.984,1937.52C906.762,1943.01 902.114,1956.59 907.611,1967.81C913.116,1979.05 916.305,1989.27 917.355,1998.28C918.616,2009.1 917.748,2017.75 911.577,2021.11C904.892,2024.75 896.052,2020.81 886.044,2013.31C876.042,2005.82 861.84,2007.86 854.349,2017.86C846.859,2027.87 848.898,2042.07 858.901,2049.56ZM880.264,1959.07C870.938,1959.07 863.367,1966.64 863.367,1975.96C863.367,1985.29 870.938,1992.86 880.264,1992.86C889.59,1992.86 897.162,1985.29 897.162,1975.96C897.162,1966.64 889.59,1959.07 880.264,1959.07ZM880.264,1969.07C884.071,1969.07 887.162,1972.15 887.162,1975.96C887.162,1979.77 884.071,1982.86 880.264,1982.86C876.457,1982.86 873.367,1979.77 873.367,1975.96C873.367,1972.15 876.457,1969.07 880.264,1969.07ZM818,1702C880.481,1702 931.208,1752.73 931.208,1815.21C931.208,1877.69 880.481,1928.41 818,1928.41C755.519,1928.41 704.792,1877.69 704.792,1815.21C704.792,1752.73 755.519,1702 818,1702ZM818,1849.68C804.581,1849.68 793.686,1860.57 793.686,1873.99C793.686,1887.41 804.581,1898.31 818,1898.31C831.419,1898.31 842.314,1887.41 842.314,1873.99C842.314,1860.57 831.419,1849.68 818,1849.68ZM818,1859.68C825.9,1859.68 832.314,1866.09 832.314,1873.99C832.314,1881.89 825.9,1888.31 818,1888.31C810.1,1888.31 803.686,1881.89 803.686,1873.99C803.686,1866.09 810.1,1859.68 818,1859.68ZM708.667,1767.66L695.886,1767.66C689.482,1767.66 684.282,1772.86 684.282,1779.26L684.282,1833.04C684.282,1839.44 689.482,1844.64 695.886,1844.64L702.46,1844.64C700.066,1835.23 698.792,1825.37 698.792,1815.21C698.792,1798.31 702.315,1782.23 708.667,1767.66ZM927.333,1767.66L940.114,1767.66C946.518,1767.66 951.718,1772.86 951.718,1779.26L951.718,1833.04C951.718,1839.44 946.518,1844.64 940.114,1844.64L933.54,1844.64C935.934,1835.23 937.208,1825.37 937.208,1815.21C937.208,1798.31 933.685,1782.23 927.333,1767.66ZM678.282,1783.14L678.282,1829.16C668.063,1826.5 660.509,1817.2 660.509,1806.15C660.509,1795.1 668.063,1785.8 678.282,1783.14ZM957.718,1783.14L957.718,1829.16C967.937,1826.5 975.491,1817.2 975.491,1806.15C975.491,1795.1 967.937,1785.8 957.718,1783.14ZM771.624,1784.31C762.276,1784.31 754.686,1791.89 754.686,1801.24C754.686,1810.59 762.276,1818.18 771.624,1818.18C780.973,1818.18 788.562,1810.59 788.562,1801.24C788.562,1791.89 780.973,1784.31 771.624,1784.31ZM864.376,1784.31C855.027,1784.31 847.438,1791.89 847.438,1801.24C847.438,1810.59 855.027,1818.18 864.376,1818.18C873.724,1818.18 881.314,1810.59 881.314,1801.24C881.314,1791.89 873.724,1784.31 864.376,1784.31ZM771.624,1794.31C775.453,1794.31 778.562,1797.41 778.562,1801.24C778.562,1805.07 775.453,1808.18 771.624,1808.18C767.795,1808.18 764.686,1805.07 764.686,1801.24C764.686,1797.41 767.795,1794.31 771.624,1794.31ZM864.376,1794.31C868.205,1794.31 871.314,1797.41 871.314,1801.24C871.314,1805.07 868.205,1808.18 864.376,1808.18C860.547,1808.18 857.438,1805.07 857.438,1801.24C857.438,1797.41 860.547,1794.31 864.376,1794.31Z"/></g></g><text x="0" y="527" fill="#000000" font-size="5px" font-weight="bold" font-family="'Helvetica Neue', Helvetica, Arial-Unicode, Arial, Sans-serif">Created by Anditii Creative</text><text x="0" y="532" fill="#000000" font-size="5px" font-weight="bold" font-family="'Helvetica Neue', Helvetica, Arial-Unicode, Arial, Sans-serif">from the Noun Project</text></svg>